<?xml version="1.0" standalone="no"?>
<!DOCTYPE svg PUBLIC "-//W3C//DTD SVG 20010904//EN"
 "http://www.w3.org/TR/2001/REC-SVG-20010904/DTD/svg10.dtd">
<svg version="1.0" xmlns="http://www.w3.org/2000/svg"
 width="260.000000pt" height="260.000000pt" viewBox="0 0 260.000000 260.000000"
 preserveAspectRatio="xMidYMid meet">
<metadata>
Created by potrace 1.11, written by Peter Selinger 2001-2013
</metadata>
<g transform="translate(0.000000,260.000000) scale(0.100000,-0.100000)"
fill="#000000" stroke="none">
<path d="M0 1300 l0 -1300 1300 0 1300 0 0 1125 0 1126 -22 8 c-14 5 -17 10
-10 15 7 4 12 20 12 36 0 16 5 32 10 35 6 4 10 58 10 131 l0 124 -1300 0
-1300 0 0 -1300z m910 1115 c0 -9 -9 -15 -25 -15 -31 0 -33 17 -2 23 12 2 23
5 25 6 1 0 2 -6 2 -14z m710 -81 c0 -49 15 -58 31 -18 5 15 13 24 16 20 7 -6
8 -13 14 -73 4 -37 10 -41 30 -16 11 13 11 17 1 20 -6 3 -9 9 -6 14 10 17 55
-40 49 -64 -6 -25 18 -62 34 -52 6 3 11 2 11 -4 0 -5 -5 -13 -11 -16 -6 -4 -8
-22 -4 -45 9 -51 -10 -60 -25 -13 -15 48 -22 54 -39 43 -12 -7 -12 -12 -3 -23
14 -16 6 -27 -20 -27 -15 0 -18 5 -13 20 5 14 2 20 -9 20 -20 0 -21 26 -1 34
8 3 15 0 15 -6 0 -6 2 -9 5 -7 2 3 2 14 -1 26 -7 25 -38 20 -58 -9 -12 -17
-15 -17 -29 -3 -19 19 -27 19 -27 1 0 -35 -66 -25 -75 11 -6 27 13 59 22 36 6
-18 38 -16 53 2 11 13 8 16 -19 21 -17 4 -33 10 -36 14 -6 10 46 34 70 31 12
-1 16 1 9 6 -8 6 -44 84 -44 96 0 1 14 2 30 3 29 1 30 0 30 -42z m-650 27 c0
-5 -7 -14 -15 -21 -13 -10 -15 -9 -15 9 0 12 6 21 15 21 8 0 15 -4 15 -9z
m118 -3 c10 -10 17 -10 32 0 13 8 21 8 25 1 4 -6 19 -7 35 -4 19 4 38 1 54
-11 21 -13 29 -14 41 -4 12 10 16 9 21 -4 6 -15 8 -14 21 4 12 17 21 20 46 14
18 -4 40 -7 49 -6 24 1 32 -30 11 -45 -16 -13 -16 -15 0 -43 17 -27 17 -29 0
-39 -10 -6 -12 -11 -5 -11 6 0 15 0 20 0 13 -1 22 -53 10 -67 -6 -7 -6 -13 -1
-13 5 0 10 -6 10 -14 0 -8 -6 -12 -13 -9 -6 2 -15 -1 -19 -7 -9 -15 16 -33 29
-20 10 10 49 -7 42 -19 -3 -4 4 -12 14 -18 15 -10 19 -8 25 10 23 66 21 65 41
20 20 -45 53 -70 79 -59 11 4 14 13 10 28 -6 23 -6 23 13 -1 18 -22 18 -26 5
-40 -10 -9 -33 -15 -64 -14 -54 0 -60 -7 -65 -73 -3 -39 -1 -42 37 -63 l40
-23 -26 -23 c-28 -26 -33 -48 -10 -39 8 4 15 1 15 -5 0 -6 -6 -11 -12 -11 -8
-1 -6 -6 5 -14 9 -7 17 -18 17 -25 0 -6 4 -11 8 -11 17 0 47 -67 52 -114 4
-42 10 -52 34 -66 34 -18 45 -40 22 -40 -9 0 -13 -6 -10 -14 3 -8 11 -13 18
-10 7 3 20 -11 29 -31 9 -20 24 -38 32 -41 8 -4 15 -12 15 -20 0 -8 4 -14 9
-14 7 0 20 -26 25 -52 0 -4 9 -17 19 -28 10 -12 15 -25 12 -30 -3 -5 4 -14 15
-20 11 -6 20 -7 20 -3 0 4 4 1 9 -7 6 -8 7 -27 4 -42 -5 -23 -2 -28 15 -28 12
0 24 5 27 10 10 16 25 12 19 -5 -4 -9 0 -15 8 -15 15 0 43 -48 33 -58 -2 -3
-13 2 -24 12 -16 14 -20 15 -30 2 -10 -11 -9 -21 2 -43 16 -32 30 -79 31 -108
1 -15 7 -19 24 -17 12 2 22 -1 22 -7 0 -6 -7 -8 -15 -5 -10 4 -15 0 -15 -10 0
-9 7 -19 15 -22 8 -4 12 -10 9 -15 -7 -12 27 -90 36 -84 4 3 10 -16 14 -41 3
-24 16 -64 29 -87 26 -47 59 -212 53 -267 -2 -21 -14 -46 -30 -62 -27 -28 -56
-37 -56 -18 0 7 -7 7 -21 -1 -27 -14 -96 6 -104 30 -3 9 -23 34 -45 56 -21 22
-40 49 -40 60 0 27 -24 93 -38 107 -7 7 -12 19 -12 28 0 9 -4 20 -10 26 -23
23 -81 129 -83 153 -5 38 -37 100 -58 112 -11 5 -19 15 -19 22 -1 29 -41 62
-82 66 -3 1 -4 10 -1 21 4 14 0 20 -10 20 -8 0 -17 5 -19 11 -3 8 -10 8 -25
-2 -19 -11 -24 -11 -40 4 -11 9 -27 14 -39 11 -14 -4 -23 0 -27 10 -4 9 -13
13 -22 10 -8 -4 -21 -2 -28 3 -6 5 -28 8 -47 7 -19 -2 -49 4 -67 12 -31 14
-63 10 -63 -7 0 -5 -11 -9 -23 -9 -25 0 -62 -32 -50 -43 3 -4 2 -7 -3 -7 -6 0
-15 5 -21 11 -14 14 -34 3 -27 -15 3 -7 -2 -19 -11 -26 -8 -7 -15 -18 -15 -26
0 -7 -9 -18 -20 -24 -11 -6 -20 -17 -20 -25 0 -9 -5 -24 -11 -34 -10 -15 -8
-22 10 -40 27 -27 27 -37 -4 -57 -33 -22 -38 -44 -19 -83 15 -31 15 -33 -5
-52 -12 -11 -21 -30 -21 -43 0 -13 -7 -37 -15 -52 -8 -16 -15 -50 -15 -75 0
-29 -6 -51 -15 -59 -9 -8 -15 -29 -15 -56 0 -45 -24 -74 -62 -74 -10 0 -18 -4
-18 -10 0 -5 -11 -10 -24 -10 -41 0 -57 73 -41 190 4 30 11 60 16 65 24 32 57
305 37 305 -7 0 -7 4 0 13 5 6 8 34 7 62 -2 27 1 55 7 62 8 10 5 19 -11 37
-12 12 -19 29 -16 37 2 8 1 20 -4 28 -8 12 -12 12 -25 2 -19 -16 -46 -8 -46
13 0 9 -14 19 -32 24 -32 8 -33 9 -36 71 -3 60 -2 65 30 93 28 25 31 31 20 48
-15 24 -15 40 -2 40 6 0 10 -9 10 -20 0 -11 7 -20 15 -20 8 0 15 9 15 19 0 27
15 34 39 19 17 -10 23 -8 40 13 15 16 20 33 16 52 -4 24 -1 28 25 34 32 6 35
10 21 32 -6 10 -5 23 2 35 6 12 10 31 8 44 -2 17 3 25 19 29 19 5 19 7 5 23
-8 9 -13 25 -9 34 4 9 1 16 -6 16 -9 0 -7 6 4 19 10 11 15 25 11 30 -3 6 -3
17 2 24 4 6 8 26 9 42 0 17 4 42 8 58 7 22 5 26 -6 22 -11 -5 -15 5 -16 42 -1
26 -4 81 -6 121 -2 39 0 74 4 77 4 3 6 13 3 24 -3 12 3 24 16 33 15 10 22 28
24 55 2 32 5 39 20 35 20 -5 22 8 5 27 -11 10 -10 11 3 6 19 -7 79 59 79 87 0
21 11 23 28 6z m-438 -8 c0 -5 -7 -10 -15 -10 -8 0 -15 5 -15 10 0 6 7 10 15
10 8 0 15 -4 15 -10z m244 -5 c-4 -8 -11 -12 -16 -9 -6 4 -5 10 3 15 19 12 19
11 13 -6z m586 0 c0 -8 -4 -15 -10 -15 -5 0 -10 7 -10 15 0 8 5 15 10 15 6 0
10 -7 10 -15z m280 5 c8 -5 11 -12 8 -16 -10 -9 -38 3 -38 16 0 12 10 13 30 0z
m-740 -15 c0 -8 -4 -15 -10 -15 -5 0 -10 7 -10 15 0 8 5 15 10 15 6 0 10 -7
10 -15z m1460 0 c0 -8 -4 -15 -9 -15 -13 0 -22 16 -14 24 11 11 23 6 23 -9z
m-970 -24 c0 -20 -17 -37 -27 -28 -7 8 7 47 18 47 5 0 9 -9 9 -19z m50 -6 c0
-8 -4 -15 -10 -15 -5 0 -10 7 -10 15 0 8 5 15 10 15 6 0 10 -7 10 -15z m797
-37 c-3 -8 -6 -5 -6 6 -1 11 2 17 5 13 3 -3 4 -12 1 -19z m-547 -8 c0 -5 -7
-10 -15 -10 -8 0 -15 5 -15 10 0 6 7 10 15 10 8 0 15 -4 15 -10z m280 -47 c0
-7 -7 -13 -15 -13 -16 0 -19 9 -9 35 5 13 8 14 15 3 5 -7 9 -19 9 -25z m340 8
c0 -17 -18 -21 -24 -6 -3 9 0 15 9 15 8 0 15 -4 15 -9z m-1565 -41 c13 -6 15
-9 5 -9 -8 0 -22 4 -30 9 -18 12 -2 12 25 0z m1273 -2 c-6 -18 -28 -21 -28 -4
0 9 7 16 16 16 9 0 14 -5 12 -12z m102 -18 c0 -10 -52 -20 -64 -13 -5 3 2 14
15 24 23 17 49 11 49 -11z m142 -11 c-4 -24 0 -31 17 -36 24 -6 29 -33 6 -33
-17 0 -18 -12 -9 -60 5 -22 9 -28 15 -18 6 9 9 5 9 -14 0 -21 -6 -28 -31 -33
-21 -5 -34 -3 -42 8 -7 9 -21 17 -32 20 -19 5 -19 5 2 12 18 6 33 32 38 70 1
6 5 18 10 28 10 23 -11 47 -40 47 -70 0 -71 28 -2 33 28 2 55 4 58 5 3 1 4
-12 1 -29z m122 20 c-3 -6 0 -15 7 -20 21 -13 7 -18 -21 -7 -24 9 -24 10 -6
24 24 17 30 18 20 3z m-62 -24 c29 -25 29 -25 6 -25 -26 0 -48 17 -48 37 0 19
8 16 42 -12z m-802 -95 c0 -5 -4 -10 -10 -10 -5 0 -10 5 -10 10 0 6 5 10 10
10 6 0 10 -4 10 -10z m170 -20 c0 -11 -4 -20 -9 -20 -5 0 -7 9 -4 20 3 11 7
20 9 20 2 0 4 -9 4 -20z m-1593 -26 c-9 -9 -28 6 -21 18 4 6 10 6 17 -1 6 -6
8 -13 4 -17z m2042 -7 c13 -16 5 -27 -15 -21 -50 15 -49 15 -34 24 21 13 36
12 49 -3z m-199 -27 c0 -5 -2 -10 -4 -10 -3 0 -8 5 -11 10 -3 6 -1 10 4 10 6
0 11 -4 11 -10z m-400 -20 c0 -5 -4 -10 -10 -10 -5 0 -10 5 -10 10 0 6 5 10
10 10 6 0 10 -4 10 -10z m600 -26 c0 -8 -5 -12 -10 -9 -6 4 -8 11 -5 16 9 14
15 11 15 -7z m-280 -205 c0 -6 -4 -7 -10 -4 -5 3 -10 11 -10 16 0 6 5 7 10 4
6 -3 10 -11 10 -16z"/>
<path d="M1720 2225 c-17 -21 -9 -27 13 -10 10 7 14 16 9 19 -5 3 -15 -1 -22
-9z"/>
<path d="M1620 2210 c0 -5 5 -10 11 -10 5 0 7 5 4 10 -3 6 -8 10 -11 10 -2 0
-4 -4 -4 -10z"/>
<path d="M1406 2161 c-4 -5 -2 -12 3 -15 5 -4 12 -2 15 3 4 5 2 12 -3 15 -5 4
-12 2 -15 -3z"/>
<path d="M1230 1644 c-17 -9 -24 -20 -22 -34 2 -13 -2 -20 -12 -20 -9 0 -16
-8 -16 -18 0 -15 -6 -17 -35 -14 -34 4 -49 -11 -22 -21 7 -3 5 -6 -5 -6 -33
-2 -20 -31 13 -31 28 0 31 -3 25 -23 -4 -19 0 -27 22 -37 26 -13 26 -14 5 -18
-13 -2 -23 -7 -23 -13 0 -11 46 -23 59 -14 6 3 11 2 11 -3 0 -17 29 -22 54
-11 13 6 35 32 47 58 13 25 30 51 37 56 10 8 12 22 7 48 -6 30 -11 36 -25 32
-17 -6 -34 23 -31 53 1 6 -9 12 -22 12 -12 0 -27 4 -32 8 -6 5 -21 3 -35 -4z"/>
<path d="M2015 361 c-7 -12 12 -24 25 -16 11 7 4 25 -10 25 -5 0 -11 -4 -15
-9z"/>
<path d="M2110 351 c0 -12 5 -21 10 -21 6 0 10 6 10 14 0 8 -4 18 -10 21 -5 3
-10 -3 -10 -14z"/>
</g>
</svg>
