<?xml version="1.0" standalone="no"?>
<!DOCTYPE svg PUBLIC "-//W3C//DTD SVG 20010904//EN"
 "http://www.w3.org/TR/2001/REC-SVG-20010904/DTD/svg10.dtd">
<svg version="1.0" xmlns="http://www.w3.org/2000/svg"
 width="260.000000pt" height="260.000000pt" viewBox="0 0 260.000000 260.000000"
 preserveAspectRatio="xMidYMid meet">
<metadata>
Created by potrace 1.11, written by Peter Selinger 2001-2013
</metadata>
<g transform="translate(0.000000,260.000000) scale(0.100000,-0.100000)"
fill="#000000" stroke="none">
<path d="M0 1300 l0 -1300 1300 0 1300 0 0 1300 0 1300 -1300 0 -1300 0 0
-1300z m1753 1136 c80 -33 112 -111 127 -315 9 -111 8 -154 -6 -248 -14 -97
-15 -141 -5 -325 6 -117 20 -280 31 -363 32 -242 25 -311 -39 -380 -21 -23
-42 -52 -46 -64 -3 -12 -2 -61 4 -109 10 -87 9 -96 -23 -212 -13 -47 -14 -72
-4 -177 11 -115 11 -124 -7 -143 -12 -13 -28 -20 -44 -18 -34 4 -40 35 -46
221 -3 82 -7 153 -11 158 -3 5 -9 48 -14 95 -8 77 -13 91 -44 132 -27 34 -36
55 -36 84 0 51 -25 74 -89 83 -101 14 -143 80 -122 197 23 131 6 299 -31 306
-10 2 -27 -6 -40 -17 -16 -16 -35 -21 -74 -21 -29 0 -56 -5 -61 -12 -13 -17
-26 -181 -29 -373 -2 -121 -6 -162 -23 -215 -17 -51 -23 -101 -28 -235 -3 -93
-10 -176 -16 -182 -14 -18 -63 -16 -83 4 -14 14 -15 29 -9 102 11 124 8 149
-25 217 -38 79 -58 95 -126 106 -137 21 -145 40 -145 322 0 116 0 231 -1 256
0 25 5 128 11 230 9 141 9 204 0 263 -7 49 -9 100 -4 135 5 31 9 109 10 173 3
167 21 208 110 245 49 20 224 35 269 23 18 -5 45 -23 61 -39 24 -25 29 -39 28
-73 -14 -416 -11 -467 31 -475 50 -10 137 53 155 111 5 18 12 119 15 226 5
159 10 201 25 236 10 23 25 46 32 51 8 5 50 10 94 10 44 1 98 6 120 12 57 14
72 14 108 -2z"/>
</g>
</svg>
