<?xml version="1.0" standalone="no"?>
<!DOCTYPE svg PUBLIC "-//W3C//DTD SVG 20010904//EN"
 "http://www.w3.org/TR/2001/REC-SVG-20010904/DTD/svg10.dtd">
<svg version="1.0" xmlns="http://www.w3.org/2000/svg"
 width="329.000000pt" height="329.000000pt" viewBox="0 0 329.000000 329.000000"
 preserveAspectRatio="xMidYMid meet">
<metadata>
Created by potrace 1.11, written by Peter Selinger 2001-2013
</metadata>
<g transform="translate(0.000000,329.000000) scale(0.100000,-0.100000)"
fill="#000000" stroke="none">
<path d="M0 2467 c0 -453 4 -827 8 -833 5 -5 6 -55 2 -112 -4 -57 -8 -422 -9
-813 l-2 -709 1645 0 1646 0 0 1645 0 1645 -1299 0 c-1229 0 -1300 -1 -1304
-17 -4 -17 -5 -17 -6 0 -1 16 -23 17 -306 17 l-305 0 -3 -802 -2 -803 -3 803
c-1 523 -5 802 -12 802 -6 0 -11 -281 -13 -807 l-2 -808 -3 808 c-2 710 -4
807 -17 807 -13 0 -15 -98 -15 -823z m1610 593 c0 -10 4 -21 9 -25 5 -3 13
-20 16 -38 4 -17 18 -59 32 -92 38 -94 39 -97 55 -147 8 -26 12 -45 8 -43 -20
13 -39 -8 -36 -38 3 -28 7 -32 32 -32 23 -1 30 -7 38 -33 5 -18 13 -32 18 -32
5 0 6 -9 3 -20 -8 -27 20 -122 51 -171 13 -21 24 -43 24 -49 0 -5 3 -10 8 -10
4 0 8 -18 9 -41 1 -22 7 -47 14 -55 8 -10 12 -46 10 -111 l-2 -96 35 6 c32 5
35 3 49 -31 8 -20 25 -73 37 -117 13 -44 27 -84 32 -90 4 -5 8 -19 8 -30 0
-12 13 -61 30 -109 16 -49 27 -94 23 -100 -3 -6 -2 -7 2 -3 5 4 28 -54 51
-130 50 -162 103 -322 115 -343 42 -75 58 -115 63 -152 2 -24 18 -73 35 -110
25 -54 36 -68 53 -68 21 0 21 0 2 -14 -17 -13 -18 -17 -5 -48 7 -18 19 -56 26
-84 7 -28 18 -61 24 -73 7 -12 10 -29 7 -37 -3 -8 -1 -14 4 -14 6 0 10 -7 10
-16 0 -8 11 -40 25 -70 34 -75 48 -140 35 -164 -13 -24 -44 -25 -116 -4 -47
13 -58 21 -80 60 -35 59 -63 136 -76 203 -5 31 -14 61 -19 68 -7 8 -2 15 18
25 48 23 38 85 -12 72 -13 -3 -26 -1 -29 4 -3 6 -38 111 -77 233 -39 122 -77
235 -85 250 -18 36 -77 53 -148 44 -69 -9 -170 -9 -362 0 -124 6 -169 5 -200
-6 -21 -7 -41 -14 -44 -14 -104 -18 -125 -30 -146 -79 -10 -22 -28 -65 -41
-94 -13 -29 -24 -58 -24 -65 -1 -7 -5 8 -9 33 -5 28 -27 76 -59 125 -48 74
-51 83 -46 125 6 41 68 246 150 495 54 163 103 320 149 481 25 82 65 198 89
256 50 115 62 154 77 244 17 104 22 123 36 135 11 9 17 9 28 0 11 -9 19 -9 36
1 18 11 20 18 13 43 -9 36 -10 183 0 208 8 22 27 13 27 -13z m317 -508 c37
-21 84 -45 103 -53 99 -45 130 -63 175 -107 143 -137 244 -292 279 -424 8 -32
21 -72 29 -90 53 -116 92 -337 82 -458 -10 -117 -34 -219 -68 -290 -35 -74
-76 -137 -104 -163 -19 -16 -19 -16 -16 11 2 15 -7 64 -20 110 -15 52 -20 82
-13 82 6 0 5 4 -3 9 -7 5 -17 30 -22 55 -7 40 -4 60 22 139 39 117 44 247 12
342 -11 33 -30 92 -42 131 -11 39 -38 98 -60 130 -42 62 -185 199 -232 222
-30 15 -101 140 -114 202 -11 54 -54 137 -81 159 -57 45 -14 41 73 -7z m-594
-6 c3 -8 -3 -45 -14 -83 -10 -37 -19 -69 -19 -70 0 -2 -11 -3 -25 -3 -20 0
-25 -5 -25 -25 0 -18 4 -23 15 -19 20 8 19 4 -9 -60 -16 -35 -52 -83 -101
-134 -82 -85 -131 -148 -173 -225 -20 -38 -30 -47 -46 -43 -11 3 -25 1 -30 -4
-6 -4 -24 -10 -41 -12 -36 -4 -70 -53 -46 -67 15 -9 44 -5 78 12 13 5 26 8 29
4 3 -3 -4 -34 -15 -69 -23 -69 -51 -248 -51 -323 0 -56 20 -137 54 -220 19
-47 29 -60 45 -59 12 0 21 -3 21 -8 0 -4 -4 -8 -9 -8 -34 0 1 -105 69 -206 16
-25 30 -48 30 -52 0 -4 12 -22 27 -40 24 -28 36 -33 85 -37 32 -2 62 -6 67 -9
4 -3 11 -31 13 -61 3 -36 13 -66 26 -85 29 -39 28 -81 -2 -109 -23 -22 -32
-23 -178 -22 -84 0 -209 -4 -278 -9 -173 -12 -266 -14 -280 -5 -8 5 -10 26 -6
66 19 192 16 178 47 194 18 10 58 15 112 15 56 0 90 5 102 14 18 13 19 18 7
63 -7 26 -30 84 -52 128 -71 146 -114 361 -113 565 1 165 10 196 151 533 28
66 50 102 90 142 28 29 53 62 54 72 0 10 1 25 2 33 2 24 116 110 211 156 49
25 92 48 95 52 6 9 51 30 66 31 7 1 14 -5 17 -13z m-1073 -220 c0 -3 -4 -8
-10 -11 -5 -3 -10 -1 -10 4 0 6 5 11 10 11 6 0 10 -2 10 -4z m-53 -338 c-3 -8
-6 -5 -6 6 -1 11 2 17 5 13 3 -3 4 -12 1 -19z m-170 -440 c-2 -13 -4 -3 -4 22
0 25 2 35 4 23 2 -13 2 -33 0 -45z m2576 -758 c18 0 39 -11 58 -29 28 -29 29
-32 29 -135 0 -98 -1 -106 -19 -106 -11 0 -23 5 -26 10 -3 6 -20 10 -36 10
-28 0 -33 6 -73 93 -23 50 -55 106 -69 123 -15 18 -27 35 -27 39 0 5 30 5 68
2 37 -4 80 -7 95 -7z m-536 -18 c21 -16 93 -198 93 -235 0 -18 -39 -26 -71
-15 -13 5 -38 7 -55 4 -23 -5 -35 -1 -51 16 -33 37 -44 64 -52 141 -5 40 -12
80 -16 90 -6 15 0 17 61 17 50 0 75 -5 91 -18z m-1145 -340 l37 -7 -19 -55
c-10 -30 -24 -82 -31 -115 -6 -33 -15 -63 -18 -67 -13 -15 -130 14 -157 39
-24 22 -26 29 -19 66 4 23 11 62 14 87 5 36 11 45 31 51 33 9 116 10 162 1z"/>
<path d="M1650 2776 c0 -20 5 -26 21 -26 15 0 20 5 17 22 -5 34 -38 37 -38 4z"/>
<path d="M1607 2360 c-22 -16 -45 -37 -53 -47 -7 -10 -39 -97 -70 -193 -31
-96 -59 -182 -61 -190 -3 -8 -7 -22 -8 -30 -5 -28 -76 -285 -85 -305 -5 -11
-11 -36 -15 -56 -3 -21 -12 -42 -20 -49 -8 -7 -15 -18 -15 -26 0 -11 -26 -76
-37 -93 -1 -2 -9 2 -18 9 -12 10 -21 9 -50 -4 -19 -9 -35 -19 -35 -21 0 -28
25 -105 34 -105 13 0 86 83 86 99 0 6 12 6 33 1 17 -5 55 -11 82 -14 72 -7
375 -9 382 -2 4 3 27 6 52 6 60 0 118 17 142 41 32 32 25 102 -22 231 -32 88
-41 127 -41 178 -1 78 10 138 28 164 21 30 1 58 -39 54 -20 -2 -32 -9 -33 -18
-1 -8 -2 -28 -2 -43 -3 -41 -20 -29 -44 28 -12 28 -40 95 -63 150 -65 151 -69
169 -51 202 16 33 6 63 -22 63 -9 0 -34 -14 -55 -30z"/>
</g>
</svg>
